<?xml version="1.0" encoding="UTF-8"?>
<svg xmlns="http://www.w3.org/2000/svg" width="300px" height="53px" viewBox="0 0 256.193 45.934">
  <g id="Group_113" data-name="Group 113" transform="translate(-14 -48)">
    <path id="Path_1" data-name="Path 1" d="M124.786,35.65a5.006,5.006,0,0,0-5.009-5.01h-5.009V44.3H117.5V40.659h2.149l2.386,3.643H125.3l-2.878-4.389a5.021,5.021,0,0,0,2.368-4.262m-2.732,0a2.278,2.278,0,0,1-2.277,2.277H117.5V33.372h2.277a2.278,2.278,0,0,1,2.277,2.277" transform="translate(-38.927 33.87)" fill="#313133"></path>
    <path id="Path_2" data-name="Path 2" d="M161.725,43.662l-7.887-14.407-7.869,14.407h3.115l1.238-2.277h7.031l1.257,2.277Zm-5.865-5.009h-4.044l2.022-3.716Z" transform="translate(-53.315 34.509)" fill="#313133"></path>
    <path id="Path_3" data-name="Path 3" d="M189.745,44.3h2.732V36.323l8.361,7.978h.747V30.64h-2.732v7.979l-8.379-7.979h-.729Z" transform="translate(-73.503 33.87)" fill="#313133"></path>
    <path id="Path_4" data-name="Path 4" d="M239.562,37.016h-5.92v2.732h3.188v.783a4.1,4.1,0,1,1,.8-5.137l2.168-1.676a6.825,6.825,0,1,0-.237,7.851Z" transform="translate(-90.807 33.87)" fill="#313133"></path>
    <path id="Path_5" data-name="Path 5" d="M361.2,43.662l-7.887-14.407-7.869,14.407h3.115l1.239-2.277h7.031l1.257,2.277Zm-5.865-5.009h-4.043l2.022-3.716Z" transform="translate(-145.307 34.509)" fill="#313133"></path>
    <path id="Path_6" data-name="Path 6" d="M381.547,33.372H386.1V44.3h2.732V33.372h4.554V30.64H381.547Z" transform="translate(-161.954 33.87)" fill="#313133"></path>
    <path id="Path_7" data-name="Path 7" d="M419.407,44.3h10.018V41.569h-7.286V39.02H427.6V36.288h-5.464V33.372h7.286V30.64H419.407Z" transform="translate(-179.414 33.87)" fill="#313133"></path>
    <path id="Path_8" data-name="Path 8" d="M465.933,35.65a5.006,5.006,0,0,0-5.009-5.01h-5.009V44.3h2.732V40.659H460.8l2.386,3.643h3.26l-2.878-4.389a5.02,5.02,0,0,0,2.368-4.262m-2.732,0a2.278,2.278,0,0,1-2.277,2.277h-2.277V33.372h2.277A2.278,2.278,0,0,1,463.2,35.65" transform="translate(-196.25 33.87)" fill="#313133"></path>
    <path id="Path_9" data-name="Path 9" d="M313.552,39.548l-1.537-2.811,3.144-5.751H312.1l-1.613,2.961-1.62-2.961h-3.057l3.15,5.762-1.526,2.8-4.683-8.562H299.7l7.329,13.406h.8l2.656-4.858,2.655,4.858h.8l7.329-13.406h-3.056Z" transform="translate(-124.208 33.71)" fill="#313133"></path>
    <path id="Path_10" data-name="Path 10" d="M266.784,44.174H276.8V41.442h-7.286V38.893h5.464V36.161h-5.464V33.245H276.8V30.513H266.784Z" transform="translate(-109.03 33.929)" fill="#313133"></path>
    <g id="Group_27" data-name="Group 27" transform="translate(-3)">
      <rect id="Rectangle_1" data-name="Rectangle 1" width="32.48" height="32.48" transform="translate(17 70.967) rotate(-45.001)" fill="#313133"></rect>
      <path id="Path_11" data-name="Path 11" d="M38.771,48.184l-1.126-2.068,2.22-4.062h-2.24L36.53,44.071l-1.1-2.016H33.243l2.2,4.02-2.826,5.2-2.842-5.17,2.214-4.05H29.8l-1.122,2.058-1.132-2.058h-2.18l2.221,4.062-1.127,2.068-3.353-6.129H20.919l5.246,9.6h.575l1.936-3.541,3.562,6.516h.754l3.562-6.515,1.936,3.54h.576l5.246-9.6H42.123Z" transform="translate(7.353 28.606)" fill="#476868"></path>
      <path id="Path_12" data-name="Path 12" d="M44.312,31.3l-5.246-9.6h-.576l-1.936,3.54-3.562-6.515h-.754l-3.562,6.515L26.741,21.7h-.575l-5.246,9.6h2.188l3.353-6.129,1.127,2.068L25.366,31.3h2.24L28.7,29.28,29.8,31.3h2.188l-2.2-4.02,2.826-5.2,2.842,5.17L33.243,31.3h2.188l1.121-2.058L37.684,31.3h2.18l-2.22-4.062,1.126-2.068L42.123,31.3Z" transform="translate(7.353 39.365)" fill="#fff"></path>
    </g>
  </g>
</svg>
